<svg width="124" height="124" viewBox="0 0 124 124" fill="none" xmlns="http://www.w3.org/2000/svg">
<rect width="124" height="124" fill="#62A5A2"/>
<path d="M68 102C60.8 102 54.6667 99.4667 49.6 94.4C44.5333 89.3333 42 83.2 42 76V73.7C36.2667 72.7667 31.5 70.0833 27.7 65.65C23.9 61.2167 22 56 22 50V26H34V22H42V38H34V34H30V50C30 54.4 31.5667 58.1667 34.7 61.3C37.8333 64.4333 41.6 66 46 66C50.4 66 54.1667 64.4333 57.3 61.3C60.4333 58.1667 62 54.4 62 50V34H58V38H50V22H58V26H70V50C70 56 68.1 61.2167 64.3 65.65C60.5 70.0833 55.7333 72.7667 50 73.7V76C50 81 51.75 85.25 55.25 88.75C58.75 92.25 63 94 68 94C73 94 77.25 92.25 80.75 88.75C84.25 85.25 86 81 86 76V69.3C83.6667 68.5 81.75 67.0667 80.25 65C78.75 62.9333 78 60.6 78 58C78 54.6667 79.1667 51.8333 81.5 49.5C83.8333 47.1667 86.6667 46 90 46C93.3333 46 96.1667 47.1667 98.5 49.5C100.833 51.8333 102 54.6667 102 58C102 60.6 101.25 62.9333 99.75 65C98.25 67.0667 96.3333 68.5 94 69.3V76C94 83.2 91.4667 89.3333 86.4 94.4C81.3333 99.4667 75.2 102 68 102ZM90 62C91.1333 62 92.0833 61.6167 92.85 60.85C93.6167 60.0833 94 59.1333 94 58C94 56.8667 93.6167 55.9167 92.85 55.15C92.0833 54.3833 91.1333 54 90 54C88.8667 54 87.9167 54.3833 87.15 55.15C86.3833 55.9167 86 56.8667 86 58C86 59.1333 86.3833 60.0833 87.15 60.85C87.9167 61.6167 88.8667 62 90 62Z" fill="white"/>
</svg>
