<svg width="124" height="124" viewBox="0 0 124 124" fill="none" xmlns="http://www.w3.org/2000/svg">
<rect width="124" height="124" fill="#62A5A2"/>
<path d="M62 62C56.5 62 51.7917 60.0417 47.875 56.125C43.9583 52.2083 42 47.5 42 42C42 36.5 43.9583 31.7917 47.875 27.875C51.7917 23.9583 56.5 22 62 22C67.5 22 72.2083 23.9583 76.125 27.875C80.0417 31.7917 82 36.5 82 42C82 47.5 80.0417 52.2083 76.125 56.125C72.2083 60.0417 67.5 62 62 62ZM22 102V88C22 85.1667 22.7292 82.5625 24.1875 80.1875C25.6458 77.8125 27.5833 76 30 74.75C35.1667 72.1667 40.4167 70.2292 45.75 68.9375C51.0833 67.6458 56.5 67 62 67C67.5 67 72.9167 67.6458 78.25 68.9375C83.5833 70.2292 88.8333 72.1667 94 74.75C96.4167 76 98.3542 77.8125 99.8125 80.1875C101.271 82.5625 102 85.1667 102 88V102H22ZM32 92H92V88C92 87.0833 91.7708 86.25 91.3125 85.5C90.8542 84.75 90.25 84.1667 89.5 83.75C85 81.5 80.4583 79.8125 75.875 78.6875C71.2917 77.5625 66.6667 77 62 77C57.3333 77 52.7083 77.5625 48.125 78.6875C43.5417 79.8125 39 81.5 34.5 83.75C33.75 84.1667 33.1458 84.75 32.6875 85.5C32.2292 86.25 32 87.0833 32 88V92ZM62 52C64.75 52 67.1042 51.0208 69.0625 49.0625C71.0208 47.1042 72 44.75 72 42C72 39.25 71.0208 36.8958 69.0625 34.9375C67.1042 32.9792 64.75 32 62 32C59.25 32 56.8958 32.9792 54.9375 34.9375C52.9792 36.8958 52 39.25 52 42C52 44.75 52.9792 47.1042 54.9375 49.0625C56.8958 51.0208 59.25 52 62 52Z" fill="white"/>
</svg>
