<svg width="124" height="124" viewBox="0 0 124 124" fill="none" xmlns="http://www.w3.org/2000/svg">
<rect width="124" height="124" fill="#62A5A2"/>
<mask id="mask0_356_102" style="mask-type:alpha" maskUnits="userSpaceOnUse" x="22" y="22" width="80" height="80">
<rect x="22" y="22" width="80" height="80" fill="#D9D9D9"/>
</mask>
<g mask="url(#mask0_356_102)">
<path d="M30.9871 101.747C27.2213 101.747 24.5446 100.068 22.957 96.7078C21.3694 93.3481 21.7571 90.2283 24.12 87.3486L48.7088 57.4433V30.8608H44.2783C43.0231 30.8608 41.9708 30.4362 41.1217 29.5871C40.2725 28.7379 39.8479 27.6857 39.8479 26.4304C39.8479 25.1751 40.2725 24.1229 41.1217 23.2737C41.9708 22.4246 43.0231 22 44.2783 22H79.7216C80.9769 22 82.0292 22.4246 82.8783 23.2737C83.7275 24.1229 84.1521 25.1751 84.1521 26.4304C84.1521 27.6857 83.7275 28.7379 82.8783 29.5871C82.0292 30.4362 80.9769 30.8608 79.7216 30.8608H75.2912V57.4433L99.88 87.3486C102.243 90.2283 102.631 93.3481 101.043 96.7078C99.4554 100.068 96.7787 101.747 93.0129 101.747H30.9871ZM30.9871 92.8866H93.0129L66.4304 60.5446V30.8608H57.5696V60.5446L30.9871 92.8866Z" fill="white"/>
</g>
</svg>
