<svg width="124" height="124" viewBox="0 0 124 124" fill="none" xmlns="http://www.w3.org/2000/svg">
<rect width="124" height="124" fill="#62A5A2"/>
<mask id="mask0_356_92" style="mask-type:alpha" maskUnits="userSpaceOnUse" x="22" y="22" width="80" height="80">
<rect x="22" y="22" width="80" height="80" fill="#D9D9D9"/>
</mask>
<g mask="url(#mask0_356_92)">
<path d="M62 98C60.8 98 59.65 97.7833 58.55 97.35C57.45 96.9167 56.4667 96.2667 55.6 95.4L28.8 68.5C26.4667 66.1667 24.75 63.5 23.65 60.5C22.55 57.5 22 54.3667 22 51.1C22 44.2333 24.2333 38.3333 28.7 33.4C33.1667 28.4667 38.7333 26 45.4 26C48.6 26 51.6167 26.6333 54.45 27.9C57.2833 29.1667 59.8 30.9333 62 33.2C64.1333 30.9333 66.6167 29.1667 69.45 27.9C72.2833 26.6333 75.3 26 78.5 26C85.1667 26 90.75 28.4667 95.25 33.4C99.75 38.3333 102 44.2 102 51C102 54.2667 101.433 57.4 100.3 60.4C99.1667 63.4 97.4667 66.0667 95.2 68.4L68.3 95.4C67.4333 96.2667 66.4667 96.9167 65.4 97.35C64.3333 97.7833 63.2 98 62 98ZM66 46C66.6667 46 67.3 46.1667 67.9 46.5C68.5 46.8333 68.9667 47.2667 69.3 47.8L76.1 58H92.7C93.1667 56.8667 93.5167 55.7167 93.75 54.55C93.9833 53.3833 94.1 52.2 94.1 51C93.9667 46.4 92.4333 42.45 89.5 39.15C86.5667 35.85 82.9 34.2 78.5 34.2C76.4333 34.2 74.45 34.6 72.55 35.4C70.65 36.2 69 37.3667 67.6 38.9L64.9 41.8C64.5667 42.2 64.1333 42.5167 63.6 42.75C63.0667 42.9833 62.5333 43.1 62 43.1C61.4667 43.1 60.9333 42.9833 60.4 42.75C59.8667 42.5167 59.4 42.2 59 41.8L56.3 38.9C54.9 37.3667 53.2667 36.1667 51.4 35.3C49.5333 34.4333 47.5333 34 45.4 34C41 34 37.3333 35.6833 34.4 39.05C31.4667 42.4167 30 46.4 30 51C30 52.2 30.1 53.3833 30.3 54.55C30.5 55.7167 30.8333 56.8667 31.3 58H50C50.6667 58 51.3 58.1667 51.9 58.5C52.5 58.8333 52.9667 59.2667 53.3 59.8L56.8 65L62.2 48.8C62.4667 48 62.95 47.3333 63.65 46.8C64.35 46.2667 65.1333 46 66 46ZM67.2 59L61.8 75.2C61.5333 76 61.0333 76.6667 60.3 77.2C59.5667 77.7333 58.7667 78 57.9 78C57.2333 78 56.6 77.8333 56 77.5C55.4 77.1667 54.9333 76.7333 54.6 76.2L47.8 66H37.6L61.3 89.7C61.4333 89.8333 61.55 89.9167 61.65 89.95C61.75 89.9833 61.8667 90 62 90C62.1333 90 62.25 89.9833 62.35 89.95C62.45 89.9167 62.5667 89.8333 62.7 89.7L86.3 66H74C73.3333 66 72.7 65.8333 72.1 65.5C71.5 65.1667 71 64.7333 70.6 64.2L67.2 59Z" fill="white"/>
</g>
</svg>
